<?xml version="1.0" standalone="no"?>
<!DOCTYPE svg PUBLIC "-//W3C//DTD SVG 20010904//EN"
 "http://www.w3.org/TR/2001/REC-SVG-20010904/DTD/svg10.dtd">
<svg version="1.0" xmlns="http://www.w3.org/2000/svg"
 width="600.000000pt" height="600.000000pt" viewBox="0 0 600.000000 600.000000"
 preserveAspectRatio="xMidYMid meet">
<metadata>
Created by potrace 1.14, written by Peter Selinger 2001-2017
</metadata>
<g transform="translate(0.000000,600.000000) scale(0.100000,-0.100000)"
fill="#000000" stroke="none">
<path d="M547 5313 c-127 -26 -229 -83 -323 -180 -58 -59 -117 -170 -136 -253
-9 -43 -12 -513 -12 -2072 l-1 -2016 30 -44 c57 -80 35 -77 608 -78 590 0 559
-4 625 90 16 23 17 163 18 2228 l1 2205 -24 47 c-41 83 -47 84 -412 84 -209 1
-335 -3 -374 -11z"/>
<path d="M2390 5307 c-107 -32 -174 -72 -255 -152 -93 -92 -144 -191 -163
-310 -12 -83 -7 -458 7 -493 13 -32 68 -82 104 -95 10 -4 253 -7 540 -7 500
-1 524 -2 566 -21 53 -24 94 -66 108 -113 7 -24 11 -547 11 -1675 0 -1573 1
-1641 18 -1670 10 -17 36 -44 58 -59 l39 -27 505 -1 c309 -1 518 3 538 9 37
11 73 40 99 80 17 27 18 98 18 1585 0 857 -3 1575 -7 1597 -22 113 -124 223
-256 273 l-55 21 763 0 c624 1 768 3 795 15 46 20 85 65 94 111 5 22 9 219 8
437 l0 397 -31 43 c-59 84 109 77 -1764 77 l-1665 0 -75 -22z"/>
</g>
</svg>
